<svg xmlns="http://www.w3.org/2000/svg" viewBox="0 0 64 64" width="64" height="64">
  <defs>
    <linearGradient id="bg" x1="0" y1="0" x2="1" y2="1">
      <stop offset="0%" stop-color="#ffb627"/>
      <stop offset="100%" stop-color="#7c5300"/>
    </linearGradient>
  </defs>
  <rect width="64" height="64" rx="14" fill="url(#bg)"/>
  <g>
    <rect x="8" y="22" width="20" height="20" rx="3" fill="#fff" transform="rotate(-12 18 32)"/>
    <rect x="36" y="22" width="20" height="20" rx="3" fill="#fff" transform="rotate(12 46 32)"/>
    <rect x="22" y="34" width="20" height="20" rx="3" fill="#fff"/>
  </g>
  <g fill="#1c0a06">
    <circle cx="14" cy="28" r="2" transform="rotate(-12 18 32)"/>
    <circle cx="22" cy="36" r="2" transform="rotate(-12 18 32)"/>
    <circle cx="42" cy="28" r="2" transform="rotate(12 46 32)"/>
    <circle cx="50" cy="36" r="2" transform="rotate(12 46 32)"/>
    <circle cx="46" cy="32" r="2" transform="rotate(12 46 32)"/>
    <circle cx="32" cy="44" r="2.4"/>
    <circle cx="27" cy="39" r="2"/>
    <circle cx="37" cy="39" r="2"/>
    <circle cx="27" cy="49" r="2"/>
    <circle cx="37" cy="49" r="2"/>
  </g>
</svg>
