<svg xmlns="http://www.w3.org/2000/svg" viewBox="0 0 512 512" role="img" aria-label="VEX P2P Trading">
  <defs>
    <linearGradient id="bg" x1="64" y1="32" x2="448" y2="480" gradientUnits="userSpaceOnUse">
      <stop offset="0" stop-color="#0f1b33"/>
      <stop offset="0.55" stop-color="#14284a"/>
      <stop offset="1" stop-color="#07111f"/>
    </linearGradient>
    <linearGradient id="glow" x1="128" y1="96" x2="384" y2="416" gradientUnits="userSpaceOnUse">
      <stop offset="0" stop-color="#37a2ff" stop-opacity="0.95"/>
      <stop offset="1" stop-color="#4ade80" stop-opacity="0.9"/>
    </linearGradient>
    <linearGradient id="coin" x1="176" y1="176" x2="336" y2="336" gradientUnits="userSpaceOnUse">
      <stop offset="0" stop-color="#ffd66b"/>
      <stop offset="1" stop-color="#f4a72c"/>
    </linearGradient>
  </defs>
  <rect x="32" y="32" width="448" height="448" rx="104" fill="url(#bg)"/>
  <rect x="48" y="48" width="416" height="416" rx="92" fill="none" stroke="rgba(255,255,255,0.08)" stroke-width="4"/>
  <circle cx="256" cy="256" r="156" fill="url(#glow)" opacity="0.14"/>
  <circle cx="256" cy="256" r="116" fill="none" stroke="rgba(255,255,255,0.12)" stroke-width="14"/>
  <circle cx="256" cy="256" r="88" fill="url(#coin)" stroke="rgba(255,255,255,0.18)" stroke-width="8"/>
  <path d="M195 256c0-17 13-30 30-30h16v-12c0-10 8-18 18-18h0c10 0 18 8 18 18v12h30c13 0 24 11 24 24v0c0 13-11 24-24 24h-30v12c0 10-8 18-18 18h0c-10 0-18-8-18-18v-12h-16c-17 0-30-13-30-30z" fill="#0f1419" opacity="0.95"/>
  <path d="M170 182l-38 38 38 38" fill="none" stroke="#37a2ff" stroke-width="22" stroke-linecap="round" stroke-linejoin="round"/>
  <path d="M342 182l38 38-38 38" fill="none" stroke="#4ade80" stroke-width="22" stroke-linecap="round" stroke-linejoin="round"/>
  <path d="M182 330l-42 42 42 42" fill="none" stroke="#4ade80" stroke-width="18" stroke-linecap="round" stroke-linejoin="round" opacity="0.9"/>
  <path d="M330 330l42 42-42 42" fill="none" stroke="#37a2ff" stroke-width="18" stroke-linecap="round" stroke-linejoin="round" opacity="0.9"/>
  <text x="256" y="408" text-anchor="middle" font-family="Arial, sans-serif" font-size="42" font-weight="700" fill="#ffffff" letter-spacing="4">P2P</text>
</svg>