<svg xmlns="http://www.w3.org/2000/svg" viewBox="0 0 64 64" width="64" height="64">
<defs><linearGradient id="bg" x1="0" y1="0" x2="1" y2="1"><stop offset="0%" stop-color="#7f1d1d"/><stop offset="100%" stop-color="#0a1020"/></linearGradient></defs>
<rect width="64" height="64" rx="14" fill="url(#bg)"/>
<g><circle cx="14" cy="20" r="6" fill="#3b82f6" opacity=".35"/><line x1="9" y1="15" x2="19" y2="25" stroke="#fff" stroke-width="2"/><line x1="19" y1="15" x2="9" y2="25" stroke="#fff" stroke-width="2"/></g>
<g><circle cx="50" cy="20" r="6" fill="#22c55e" opacity=".35"/><line x1="45" y1="15" x2="55" y2="25" stroke="#fff" stroke-width="2"/><line x1="55" y1="15" x2="45" y2="25" stroke="#fff" stroke-width="2"/></g>
<g><circle cx="14" cy="46" r="6" fill="#a855f7" opacity=".35"/><line x1="9" y1="41" x2="19" y2="51" stroke="#fff" stroke-width="2"/><line x1="19" y1="41" x2="9" y2="51" stroke="#fff" stroke-width="2"/></g>
<circle cx="48" cy="46" r="9" fill="#fde047"/>
<polygon points="48,38 50,44 56,44 51,48 53,54 48,50 43,54 45,48 40,44 46,44" fill="#7c2d12"/></svg>
