<svg xmlns="http://www.w3.org/2000/svg" viewBox="0 0 200 200" width="200" height="200">
  <rect x="0" y="0" width="200" height="200" rx="32" fill="#0a1020"/>
  <g stroke="#1e88ff" stroke-width="3" fill="none">
    <rect x="20" y="20" width="160" height="160" rx="6"/>
    <line x1="74" y1="20" x2="74" y2="180"/>
    <line x1="126" y1="20" x2="126" y2="180"/>
    <line x1="20" y1="74" x2="180" y2="74"/>
    <line x1="20" y1="126" x2="180" y2="126"/>
  </g>
  <g stroke="rgba(30,136,255,0.3)" stroke-width="1" fill="none">
    <line x1="38" y1="20" x2="38" y2="180"/><line x1="56" y1="20" x2="56" y2="180"/>
    <line x1="92" y1="20" x2="92" y2="180"/><line x1="110" y1="20" x2="110" y2="180"/>
    <line x1="144" y1="20" x2="144" y2="180"/><line x1="162" y1="20" x2="162" y2="180"/>
    <line x1="20" y1="38" x2="180" y2="38"/><line x1="20" y1="56" x2="180" y2="56"/>
    <line x1="20" y1="92" x2="180" y2="92"/><line x1="20" y1="110" x2="180" y2="110"/>
    <line x1="20" y1="144" x2="180" y2="144"/><line x1="20" y1="162" x2="180" y2="162"/>
  </g>
  <g font-family="Arial Black, sans-serif" font-weight="900" font-size="14" text-anchor="middle">
    <text x="29" y="35" fill="#94a3b8">5</text>
    <text x="65" y="35" fill="#94a3b8">3</text>
    <text x="119" y="35" fill="#1e88ff">7</text>
    <text x="29" y="89" fill="#94a3b8">6</text>
    <text x="83" y="89" fill="#1e88ff">9</text>
    <text x="155" y="89" fill="#94a3b8">2</text>
    <text x="65" y="121" fill="#1e88ff">4</text>
    <text x="155" y="121" fill="#1e88ff">3</text>
    <text x="29" y="159" fill="#94a3b8">8</text>
    <text x="119" y="159" fill="#1e88ff">5</text>
    <text x="173" y="173" fill="#1e88ff">1</text>
  </g>
</svg>
