<svg xmlns="http://www.w3.org/2000/svg" viewBox="0 0 200 200" width="200" height="200">
  <defs>
    <linearGradient id="g" x1="0" y1="0" x2="1" y2="1"><stop offset="0" stop-color="#1e88ff"/><stop offset="1" stop-color="#0a4d9c"/></linearGradient>
  </defs>
  <rect x="0" y="0" width="200" height="200" rx="32" fill="#0a1020"/>
  <g font-family="Arial Black, sans-serif" font-weight="900" text-anchor="middle" fill="white">
    <rect x="20" y="20" width="40" height="40" rx="6" fill="url(#g)"/><text x="40" y="50" font-size="22">1</text>
    <rect x="64" y="20" width="40" height="40" rx="6" fill="url(#g)"/><text x="84" y="50" font-size="22">2</text>
    <rect x="108" y="20" width="40" height="40" rx="6" fill="url(#g)"/><text x="128" y="50" font-size="22">3</text>
    <rect x="152" y="20" width="28" height="40" rx="6" fill="url(#g)"/><text x="166" y="50" font-size="22">4</text>
    <rect x="20" y="64" width="40" height="40" rx="6" fill="url(#g)"/><text x="40" y="94" font-size="22">5</text>
    <rect x="64" y="64" width="40" height="40" rx="6" fill="url(#g)"/><text x="84" y="94" font-size="22">6</text>
    <rect x="108" y="64" width="40" height="40" rx="6" fill="url(#g)"/><text x="128" y="94" font-size="22">7</text>
    <rect x="152" y="64" width="28" height="40" rx="6" fill="url(#g)"/><text x="166" y="94" font-size="22">8</text>
    <rect x="20" y="108" width="40" height="40" rx="6" fill="url(#g)"/><text x="40" y="138" font-size="22">9</text>
    <rect x="64" y="108" width="40" height="40" rx="6" fill="url(#g)"/><text x="84" y="138" font-size="18">10</text>
    <rect x="108" y="108" width="40" height="40" rx="6" fill="url(#g)"/><text x="128" y="138" font-size="18">11</text>
    <rect x="152" y="108" width="28" height="40" rx="6" fill="url(#g)" opacity="0.3"/><text x="166" y="138" font-size="18" opacity="0.4">12</text>
    <rect x="20" y="152" width="40" height="28" rx="6" fill="url(#g)"/><text x="40" y="174" font-size="18">13</text>
    <rect x="64" y="152" width="40" height="28" rx="6" fill="url(#g)"/><text x="84" y="174" font-size="18">14</text>
    <rect x="108" y="152" width="40" height="28" rx="6" fill="url(#g)"/><text x="128" y="174" font-size="18">15</text>
  </g>
</svg>
